<svg width="262" height="278" viewBox="0 0 262 278" fill="#FF70B5" xmlns="http://www.w3.org/2000/svg">
<path d="M85.5 144L142.5 153.5L106 157L84 163.5L61.5 171L46 188L42 204L52 219L70.5 223.5L87.5 219L114.5 200L135 184.5L126 215L122.5 234L126 254.5L135 268.5L152 274.5L169.5 265L177 247V221L169.5 200L157 161.5L172.5 184.5L187 204L209.5 221L234.5 226L250 221L258.5 204L253.5 188L234.5 171L212.5 161.5L183 153.5L228.5 138L246.5 127.5L258.5 110.5L253.5 95.5001L244 84.0001H223C214.667 87.8334 197.6 95.5001 196 95.5001C194.4 95.5001 173.333 113.167 163 122C164.667 118.167 168.3 109.5 169.5 105.5C170.7 101.5 175 84.5 177 76.5L172.5 51.5001C168 45.8334 158.6 34.5001 157 34.5001C155 34.5001 142.5 33.5001 142.5 34.5001C142.5 35.3001 131.5 46.1668 126 51.5001V84.0001C127.833 92.0001 131.4 108.5 131 110.5C130.6 112.5 127.5 116.333 126 118L100 95.5001L81 81.0001H61.5L46 91.5001L49 122L85.5 144Z" fill="#271823"/>
<path d="M198.905 153.005C240.055 144.429 258.575 125.179 261.566 108.128C263.825 95.2744 257.11 83.6223 244.858 79.1408C228.618 73.2129 202.731 79.65 174.748 110.96C187.855 71.0128 180.426 45.3457 167.198 34.264C157.206 25.912 143.794 25.912 133.802 34.264C120.574 45.3457 113.145 71.0128 126.252 110.96C98.2687 79.65 72.3821 73.2129 56.1419 79.1408C43.8905 83.6427 37.1746 95.2948 39.4336 108.149C42.4252 125.199 60.9447 144.449 102.074 153.025C60.9447 161.581 42.4252 180.832 39.4336 197.861C37.1746 210.736 43.8905 222.367 56.1419 226.849C59.6626 228.132 63.6107 228.845 67.9455 228.845C83.677 228.845 104.313 219.577 126.252 195.03C113.125 235.018 120.574 260.685 133.822 271.746C138.808 275.922 144.649 278 150.49 278C156.331 278 162.232 275.902 167.239 271.705C180.467 260.583 187.834 234.936 174.748 195.05C196.687 219.597 217.323 228.845 233.034 228.845C237.369 228.845 241.337 228.132 244.858 226.849C257.11 222.367 263.825 210.715 261.566 197.861C258.575 180.811 240.055 161.581 198.905 153.005ZM232.77 86.2502C236.005 86.2502 238.997 86.7594 241.704 87.7576C249.905 90.7521 254.057 97.943 252.551 106.56C249.071 126.36 218.707 146.446 158.671 148.279C185.738 104.482 213.497 86.2502 232.77 86.2502ZM139.683 41.3123C143.021 38.5215 146.745 37.1363 150.49 37.1363C154.234 37.1363 157.979 38.5215 161.317 41.3123C176.722 54.207 178.961 90.5891 150.49 143.594C122.039 90.5891 124.278 54.207 139.683 41.3123ZM158.305 157.466H158.366L158.467 157.629H158.305C158.305 157.629 158.284 157.609 158.284 157.589H158.386L158.305 157.466ZM142.716 157.589C142.716 157.589 142.695 157.589 142.695 157.629H142.533L142.634 157.466H142.695L142.614 157.589H142.716ZM142.614 148.564L142.533 148.422H142.695H142.716H142.594L142.675 148.544H142.614V148.564ZM48.4491 106.56C46.9431 97.9633 51.0948 90.7725 59.2963 87.778C62.003 86.7798 64.9946 86.2705 68.2304 86.2705C87.503 86.2705 115.262 104.502 142.329 148.299C82.2931 146.466 51.9292 126.381 48.4491 106.56ZM59.2963 218.253C51.0948 215.258 46.9431 208.067 48.4491 199.471C51.9292 179.65 82.2931 159.585 142.329 157.751C110.724 208.882 78.1822 225.158 59.2963 218.253ZM161.357 264.698C154.682 270.3 146.379 270.32 139.683 264.739C124.278 251.864 122.039 215.482 150.49 162.457C178.92 215.401 176.743 251.762 161.357 264.698ZM241.704 218.253C222.838 225.158 190.276 208.882 158.671 157.751C218.707 159.585 249.071 179.65 252.551 199.471C254.057 208.067 249.905 215.258 241.704 218.253Z" fill="#271823"/>
<path d="M46.5 116L103.5 125.5L67 129L45 135.5L22.5 143L7 160L3 176L13 191L31.5 195.5L48.5 191L75.5 172L96 156.5L87 187L83.5 206L87 226.5L96 240.5L113 246.5L130.5 237L138 219V193L130.5 172L118 133.5L133.5 156.5L148 176L170.5 193L195.5 198L211 193L219.5 176L214.5 160L195.5 143L173.5 133.5L144 125.5L189.5 110L207.5 99.5L219.5 82.5001L214.5 67.5001L205 56.0001H184C175.667 59.8334 158.6 67.5001 157 67.5001C155.4 67.5001 134.333 85.1668 124 94.0001C125.667 90.1668 129.3 81.5001 130.5 77.5C131.7 73.4999 136 56.5 138 48.5L133.5 23.5001C129 17.8334 119.6 6.50011 118 6.50011C116 6.50011 103.5 5.50011 103.5 6.50011C103.5 7.30011 92.5 18.1668 87 23.5001V56.0001C88.8333 64.0001 92.4 80.5001 92 82.5001C91.6 84.5001 88.5 88.3334 87 90.0001L61 67.5001L42 53.0001H22.5L7 63.5001L10 94.0001L46.5 116Z" fill="#F0EFE0"/>
<path d="M159.905 125.005C201.055 116.429 219.575 97.1787 222.566 80.1283C224.825 67.2744 218.11 55.6223 205.858 51.1408C189.618 45.2129 163.731 51.65 135.748 82.9599C148.855 43.0128 141.426 17.3457 128.198 6.264C118.206 -2.088 104.794 -2.088 94.8019 6.264C81.5736 17.3457 74.1454 43.0128 87.2516 82.9599C59.2687 51.65 33.3821 45.2129 17.1419 51.1408C4.89046 55.6427 -1.82542 67.2948 0.433556 80.1487C3.42518 97.199 21.9447 116.449 63.0744 125.025C21.9447 133.581 3.42518 152.832 0.433556 169.861C-1.82542 182.736 4.89046 194.367 17.1419 198.849C20.6626 200.132 24.6107 200.845 28.9455 200.845C44.677 200.845 65.313 191.577 87.2516 167.03C74.1251 207.018 81.5736 232.685 94.8222 243.746C99.8083 247.922 105.649 250 111.49 250C117.331 250 123.232 247.902 128.239 243.705C141.467 232.583 148.834 206.936 135.748 167.05C157.687 191.597 178.323 200.845 194.034 200.845C198.369 200.845 202.337 200.132 205.858 198.849C218.11 194.367 224.825 182.715 222.566 169.861C219.575 152.811 201.055 133.581 159.905 125.005ZM193.77 58.2502C197.005 58.2502 199.997 58.7594 202.704 59.7576C210.905 62.7521 215.057 69.943 213.551 78.5598C210.071 98.3602 179.707 118.446 119.671 120.279C146.738 76.482 174.497 58.2502 193.77 58.2502ZM100.683 13.3123C104.021 10.5215 107.745 9.13628 111.49 9.13628C115.234 9.13628 118.979 10.5215 122.317 13.3123C137.722 26.207 139.961 62.5891 111.49 115.594C83.0389 62.5891 85.2775 26.207 100.683 13.3123ZM119.305 129.466H119.366L119.467 129.629H119.305C119.305 129.629 119.284 129.609 119.284 129.589H119.386L119.305 129.466ZM103.716 129.589C103.716 129.589 103.695 129.589 103.695 129.629H103.533L103.634 129.466H103.695L103.614 129.589H103.716ZM103.614 120.564L103.533 120.422H103.695H103.716H103.594L103.675 120.544H103.614V120.564ZM9.44912 78.5598C7.94313 69.9633 12.0948 62.7725 20.2963 59.778C23.003 58.7798 25.9946 58.2705 29.2304 58.2705C48.503 58.2705 76.262 76.5023 103.329 120.299C43.2931 118.466 12.9292 98.3805 9.44912 78.5598ZM20.2963 190.253C12.0948 187.258 7.94313 180.067 9.44912 171.471C12.9292 151.65 43.2931 131.585 103.329 129.751C71.7237 180.882 39.1822 197.158 20.2963 190.253ZM122.357 236.698C115.682 242.3 107.379 242.32 100.683 236.739C85.2775 223.864 83.0389 187.482 111.49 134.457C139.92 187.401 137.743 223.762 122.357 236.698ZM202.704 190.253C183.838 197.158 151.276 180.882 119.671 129.751C179.707 131.585 210.071 151.65 213.551 171.471C215.057 180.067 210.905 187.258 202.704 190.253Z" fill="#271823"/>
<path d="M49 223C46.2 221 26.1667 206.667 11.5 196H28.5L45.5 191C49 203.333 51.8 225 49 223Z" fill="#271823"/>
<path d="M41.5 131.5L12 101C21.3333 105.167 40.3 113.6 41.5 114C42.7 114.4 53.3333 124.5 58.5 129.5L41.5 131.5Z" fill="#271823"/>
<path d="M164 32L123.5 3L136.5 36L164 32Z" fill="#271823"/>
<path d="M136 273.5L97 245.5L122 244.5L136 273.5Z" fill="#271823"/>
<path d="M239.5 168.5L203.5 142L211 157.5L239.5 168.5Z" fill="#271823"/>
<path d="M252 83L211.5 54C214.333 63.6667 219 82.6 219 83C219 83.4 243.167 84.3333 252 83Z" fill="#271823"/>
<path d="M87.5 76L57 57.5C62.6667 63.6667 76.7 78 87.5 86C98.3 94 92 82.1667 87.5 76Z" fill="#271823"/>
</svg>
