<svg width="48" height="55" viewBox="0 0 48 55" fill="none" xmlns="http://www.w3.org/2000/svg">
<path d="M34.4191 27.0649C43.2765 25.2081 47.2627 21.0402 47.9067 17.3486C48.3929 14.5656 46.9473 12.0428 44.3103 11.0725C40.8146 9.78907 35.2426 11.1828 29.2194 17.9617C32.0404 9.31274 30.4416 3.75553 27.5942 1.35622C25.4434 -0.452075 22.5566 -0.452075 20.4058 1.35622C17.5584 3.75553 15.9596 9.31274 18.7806 17.9617C12.7574 11.1828 7.18538 9.78907 3.68973 11.0725C1.05266 12.0472 -0.392916 14.57 0.0933215 17.353C0.737258 21.0446 4.72353 25.2125 13.5766 27.0693C4.72353 28.9217 0.737258 33.0896 0.0933215 36.7768C-0.392916 39.5642 1.05266 42.0826 3.68973 43.0529C4.44756 43.3308 5.29738 43.4852 6.23043 43.4852C9.61657 43.4852 14.0584 41.4784 18.7806 36.1638C15.9552 44.8215 17.5584 50.3787 20.4102 52.7736C21.4834 53.6778 22.7406 54.1277 23.9978 54.1277C25.255 54.1277 26.5254 53.6734 27.603 52.7648C30.4503 50.3567 32.0361 44.8039 29.2194 36.1682C33.9416 41.4828 38.3834 43.4852 41.7652 43.4852C42.6982 43.4852 43.5524 43.3308 44.3103 43.0529C46.9473 42.0826 48.3929 39.5598 47.9067 36.7768C47.2627 33.0852 43.2765 28.9217 34.4191 27.0649ZM41.7082 12.6118C42.4047 12.6118 43.0487 12.722 43.6313 12.9382C45.3966 13.5865 46.2903 15.1434 45.9661 17.009C45.217 21.296 38.6813 25.6448 25.7588 26.0417C31.5849 16.5592 37.5599 12.6118 41.7082 12.6118ZM21.6718 2.88225C22.3902 2.27801 23.1918 1.9781 23.9978 1.9781C24.8038 1.9781 25.6098 2.27801 26.3282 2.88225C29.6443 5.67409 30.1262 13.5512 23.9978 25.0273C17.8738 13.5512 18.3557 5.67409 21.6718 2.88225ZM25.6799 28.0308H25.6931L25.715 28.0661H25.6799C25.6799 28.0661 25.6755 28.0617 25.6755 28.0573H25.6975L25.6799 28.0308ZM22.3245 28.0573C22.3245 28.0573 22.3201 28.0573 22.3201 28.0661H22.285L22.3069 28.0308H22.3201L22.3025 28.0573H22.3245ZM22.3025 26.1034L22.285 26.0726H22.3201H22.3245H22.2982L22.3157 26.099H22.3025V26.1034ZM2.03389 17.009C1.70973 15.1478 2.60336 13.5909 4.36871 12.9426C4.95132 12.7264 5.59525 12.6162 6.29176 12.6162C10.4401 12.6162 16.4151 16.5636 22.2412 26.0461C9.31869 25.6492 2.78296 21.3004 2.03389 17.009ZM4.36871 41.1917C2.60336 40.5434 1.70973 38.9865 2.03389 37.1252C2.78296 32.8338 9.31869 28.4895 22.2412 28.0926C15.4383 39.1629 8.43383 42.6869 4.36871 41.1917ZM26.337 51.2476C24.9002 52.4605 23.1129 52.4649 21.6718 51.2564C18.3557 48.469 17.8738 40.5919 23.9978 29.1114C30.1174 40.5742 29.6487 48.447 26.337 51.2476ZM43.6313 41.1917C39.5706 42.6869 32.5617 39.1629 25.7588 28.0926C38.6813 28.4895 45.217 32.8338 45.9661 37.1252C46.2903 38.9865 45.3966 40.5434 43.6313 41.1917Z" fill="#FF70B5"/>
</svg>
