<svg width="107" height="53" viewBox="0 0 107 53" fill="none" xmlns="http://www.w3.org/2000/svg">
<g clip-path="url(#clip0_48_187)">
<path d="M41.0449 50.739C41.0701 50.7693 41.0939 50.7995 41.1167 50.8298C41.2123 50.9438 41.3124 51.0534 41.415 51.1605L41.0449 50.739ZM97.9608 39.6423C97.9073 39.74 97.8538 39.8337 97.8003 39.9269C97.9376 39.8734 98.0703 39.8149 98.2031 39.7589C98.2239 39.7217 98.2428 39.682 98.2616 39.6423H97.9613H97.9608ZM71.1852 50.746C71.2877 50.8808 71.4017 51.0117 71.5295 51.1352L71.1852 50.746Z" fill="black"/>
<path d="M42.9241 37.5034C42.9147 37.5614 42.9053 37.6175 42.8964 37.6735C42.9405 37.6175 42.985 37.5614 43.0291 37.5034H42.9246H42.9241ZM42.9241 37.5034C42.9147 37.5614 42.9053 37.6175 42.8964 37.6735C42.9405 37.6175 42.985 37.5614 43.0291 37.5034H42.9246H42.9241ZM42.9241 37.5034C42.9147 37.5614 42.9053 37.6175 42.8964 37.6735C42.9405 37.6175 42.985 37.5614 43.0291 37.5034H42.9246H42.9241ZM42.9241 37.5034C42.9147 37.5614 42.9053 37.6175 42.8964 37.6735C42.9405 37.6175 42.985 37.5614 43.0291 37.5034H42.9246H42.9241ZM42.9241 37.5034C42.9147 37.5614 42.9053 37.6175 42.8964 37.6735C42.9405 37.6175 42.985 37.5614 43.0291 37.5034H42.9246H42.9241ZM42.9241 37.5034C42.9147 37.5614 42.9053 37.6175 42.8964 37.6735C42.9405 37.6175 42.985 37.5614 43.0291 37.5034H42.9246H42.9241ZM42.9241 37.5034C42.9147 37.5614 42.9053 37.6175 42.8964 37.6735C42.9405 37.6175 42.985 37.5614 43.0291 37.5034H42.9246H42.9241ZM42.9241 37.5034C42.9147 37.5614 42.9053 37.6175 42.8964 37.6735C42.9405 37.6175 42.985 37.5614 43.0291 37.5034H42.9246H42.9241ZM42.9241 37.5034C42.9147 37.5614 42.9053 37.6175 42.8964 37.6735C42.9405 37.6175 42.985 37.5614 43.0291 37.5034H42.9246H42.9241ZM42.9241 37.5034C42.9147 37.5614 42.9053 37.6175 42.8964 37.6735C42.9405 37.6175 42.985 37.5614 43.0291 37.5034H42.9246H42.9241ZM42.9241 37.5034C42.9147 37.5614 42.9053 37.6175 42.8964 37.6735C42.9405 37.6175 42.985 37.5614 43.0291 37.5034H42.9246H42.9241ZM42.9241 37.5034C42.9147 37.5614 42.9053 37.6175 42.8964 37.6735C42.9405 37.6175 42.985 37.5614 43.0291 37.5034H42.9246H42.9241ZM42.9241 37.5034C42.9147 37.5614 42.9053 37.6175 42.8964 37.6735C42.9405 37.6175 42.985 37.5614 43.0291 37.5034H42.9246H42.9241ZM42.9241 37.5034C42.9147 37.5614 42.9053 37.6175 42.8964 37.6735C42.9405 37.6175 42.985 37.5614 43.0291 37.5034H42.9246H42.9241ZM42.9241 37.5034C42.9147 37.5614 42.9053 37.6175 42.8964 37.6735C42.9405 37.6175 42.985 37.5614 43.0291 37.5034H42.9246H42.9241Z" fill="black"/>
<path d="M51.6525 29.2944L50.6551 31.3466L48.9731 34.8083C46.3323 40.2478 45.1249 42.5886 43.917 42.5886C43.312 42.5886 42.7091 41.9852 42.7091 39.9444C42.7091 39.2012 42.774 38.4376 42.8969 37.6746C42.9395 37.6171 42.9845 37.5611 43.0291 37.503H42.9251C43.1837 35.9705 43.6603 34.4394 44.2688 33.0636V33.0616C45.5906 30.1953 47.079 28.3916 49.1628 27.8214C52.3322 26.9537 52.0548 28.5572 51.6525 29.2944Z" fill="black"/>
<path d="M89.015 36.0568C89.0125 36.094 89.008 36.1287 89.0056 36.1639C89.0402 36.1173 89.0729 36.0732 89.1106 36.0291C89.0804 36.0385 89.0477 36.0479 89.015 36.0573V36.0568Z" fill="black"/>
<path d="M94.8271 29.3709C94.8271 30.179 94.6185 30.9703 94.2296 31.7116C93.4017 33.2887 91.7509 34.6502 89.5253 35.505C89.3707 35.5665 89.2127 35.624 89.0526 35.678C89.5065 31.5995 91.6186 27.7466 93.6955 27.7466C94.3376 27.7466 94.8271 28.2384 94.8271 29.3704V29.3709Z" fill="black"/>
<path d="M41.735 20.3543H39.2473L40.2249 17.4221H40.7575L41.735 20.3543Z" fill="black"/>
<path d="M24.526 14.8235L24.5355 14.8096H24.5285L24.5191 14.826H24.5355L24.538 14.8235H24.526Z" fill="black"/>
<path d="M24.538 13.7749C24.538 13.7749 24.538 13.7725 24.5355 13.7725H24.5191L24.5285 13.7884H24.533L24.5235 13.7745H24.5375L24.538 13.7749Z" fill="black"/>
<path d="M98.7268 26.6655L98.8294 26.7776C98.8457 26.7731 98.8621 26.7682 98.8804 26.7637C98.8294 26.729 98.7778 26.6963 98.7268 26.666V26.6655Z" fill="black"/>
<path d="M37.4449 6.66309L37.8105 7.16633C37.7105 6.98685 37.5871 6.81679 37.4449 6.66309Z" fill="black"/>
<path d="M24.538 13.7749C24.538 13.7749 24.538 13.7725 24.5355 13.7725H24.5191L24.5285 13.7884H24.533L24.5235 13.7745H24.5375L24.538 13.7749Z" fill="black"/>
<path d="M24.526 14.8235L24.5355 14.8096H24.5285L24.5191 14.826H24.5355L24.538 14.8235H24.526Z" fill="black"/>
<path d="M98.7268 26.6655L98.8294 26.7776C98.8457 26.7731 98.8621 26.7682 98.8804 26.7637C98.8294 26.729 98.7778 26.6963 98.7268 26.666V26.6655Z" fill="black"/>
<path d="M98.8804 26.7632C98.8621 26.7677 98.8457 26.7726 98.8294 26.7771L98.7268 26.665C98.7778 26.6953 98.8294 26.728 98.8804 26.7627V26.7632Z" fill="black"/>
<path d="M106.839 25.7567L106.844 25.7542L103.186 22.0936L103.176 22.0911L102.811 21.9419C101.232 21.3107 99.4576 21.3945 97.9445 22.1729C97.7195 22.289 97.0854 22.7664 96.8797 22.9087L94.8682 20.5046C94.3014 19.8268 93.6276 19.2442 92.8666 18.7955C92.2156 18.4117 91.5254 18.1232 90.8788 18.0022V16.9005L88.0429 13.6639H77.574V17.8956L73.8853 13.6639H68.746V17.8515L65.0579 13.6639H52.2931V15.8985L50.6655 13.6639H45.387V15.9942L43.3452 13.6639H41.5244L41.1479 13.6693L37.811 7.1668L37.4454 6.66355C37.1288 6.31153 36.7166 6.03189 36.2256 5.85241C35.0355 5.41659 33.3941 5.56137 31.5267 6.66355L28.1457 1.66282L28.1294 1.63952L27.957 1.38319L27.9476 1.37129V1.36881C27.7638 1.11694 27.5586 0.900269 27.3396 0.716324C26.1966 -0.2391 24.6622 -0.2391 23.5187 0.716324C22.0026 1.98411 21.1554 4.92029 22.6571 9.49214C19.453 5.90843 16.4912 5.17166 14.6333 5.85241C13.2317 6.3626 12.4632 7.69533 12.7213 9.1659C12.8749 10.04 13.3853 10.9647 14.3256 11.8086L17.4252 15.0006C14.8845 15.956 13.471 17.3428 12.9309 18.6988H7.73809V20.7867L8.47186 21.0549L9.57077 21.4535L2.85443 44.8671L0.944956 45.4472L0.150747 45.6872V47.8241L4.01824 52.2328H17.6496V50.0751L15.6306 47.7706L17.4702 41.3741L20.2691 44.5667H21.1817L20.6506 46.3932L20.2364 47.8241L24.1039 52.2328H32.1862L32.4725 51.5407L35.4928 44.2141C35.6162 43.9112 35.7395 43.6246 35.856 43.3524C36.0819 44.5314 36.5521 45.5731 37.2507 46.419L37.4741 46.6753L41.0414 50.7345L41.0438 50.739L41.4139 51.1604C42.3503 52.1347 43.5657 52.6845 44.7999 52.6845C46.7792 52.6845 48.211 51.3632 49.6687 48.9843L51.7362 51.3424C52.3857 52.209 53.3662 52.6845 54.5003 52.6845C56.6753 52.6845 58.5496 50.9368 60.2307 48.9332L62.3359 51.3498C62.9854 52.212 63.9684 52.685 65.1044 52.685C66.9956 52.685 68.7113 51.3171 70.2319 49.6532L71.1747 50.7301L71.1841 50.7464L71.5285 51.1356L71.5542 51.1634C71.7311 51.3384 71.9268 51.499 72.1458 51.6458C73.1679 52.3355 74.5582 52.685 76.2769 52.685C78.8403 52.685 81.2829 51.8788 83.1528 50.4132C84.2333 49.5674 85.0553 48.5425 85.5582 47.4354L88.1058 50.3389C89.4237 51.8536 91.3213 52.685 93.4473 52.685C98.4256 52.685 101.236 48.3393 103.127 44.5528L103.935 42.9354L100.279 38.7667C102.999 37.2941 104.303 35.7348 104.303 34.0084C104.303 33.0599 103.928 32.2027 103.243 31.5616L102.307 30.4872C102.345 30.4802 102.382 30.4708 102.419 30.4619C102.868 30.3548 103.308 30.1917 103.73 29.975C105.243 29.1966 106.345 27.8053 106.752 26.1533L106.848 25.7596L106.838 25.7572L106.839 25.7567ZM91.9693 19.2978C93.1639 19.745 94.1463 20.6444 94.7007 21.8095C95.2527 22.9747 95.327 24.3049 94.9192 25.5167C93.7202 25.067 92.7397 24.1701 92.1858 23.0049C91.8668 22.3336 91.7082 21.6092 91.7082 20.8843C91.7082 20.3484 91.7944 19.8129 91.9688 19.2978H91.9693ZM78.7051 14.7963H87.1109V17.2639H81.7809V18.4524H86.9108V20.4753H81.7809V21.6638H87.1109V24.1289H78.7051V14.7968V14.7963ZM69.8801 14.7963H72.9564V21.5631H77.9302V24.1284H69.8806V14.7963H69.8801ZM61.0526 14.7963H64.1284C64.1284 14.7963 64.1705 18.7806 64.1958 21.5537H68.9179V24.1284H61.0521V14.7963H61.0526ZM57.1985 14.7963H60.2748V24.1284H57.1985V14.7963ZM46.5201 14.7963H50.0497L51.426 17.0403L53.1492 19.8412H53.4262V14.7963H56.4231V24.1284H52.9698L49.7935 19.0836H49.5166V24.1284H46.5201V14.7963ZM38.3352 14.7963H42.6432L43.4671 17.0403L45.7586 23.2667L46.0751 24.1289H42.8993L42.4896 22.8963H38.4913L38.0815 24.1289H34.9057L35.306 23.0406L35.8926 21.4441L36.3073 20.3117L36.936 18.6086L37.5113 17.0403L38.3352 14.7963ZM37.5227 14.7963L36.6982 17.0403L36.4168 17.8069L35.9719 19.0117L34.8403 22.0872L34.4236 23.2221L34.0907 24.1284H29.7827L29.2729 22.7416L28.4366 20.4674L28.2855 20.0549L27.4843 17.8783L26.4785 15.1454L26.4364 15.0313L26.3502 14.7963H29.5285L29.7961 15.5653L30.3084 17.0403L31.771 21.2413H32.1039L33.1335 18.2799L33.6249 16.8703L33.9718 15.8732L34.3468 14.7968H37.5232L37.5227 14.7963ZM34.8408 6.66355C35.2109 6.66355 35.5532 6.72404 35.8629 6.8356C36.8013 7.1782 37.2764 8.00323 37.104 8.98642C36.7849 10.8016 34.4959 12.6331 30.074 13.3996H26.588C29.6128 8.64827 32.689 6.66306 34.8403 6.66306L34.8408 6.66355ZM24.191 1.52053C24.573 1.20122 25.0016 1.04306 25.4272 1.04306C25.8528 1.04306 26.2843 1.20122 26.6663 1.52053C28.4291 2.99556 28.6853 7.15738 25.4297 13.2201C22.1721 7.15688 22.4282 2.99556 24.191 1.52053ZM24.5379 14.8236C24.5379 14.8236 24.5379 14.8261 24.5354 14.8261H24.519L24.5285 14.8097H24.5354L24.526 14.8236H24.5379ZM24.524 13.7749L24.5334 13.7888H24.5289L24.5195 13.773H24.5359L24.5384 13.7754H24.5245L24.524 13.7749ZM13.7524 8.98642C13.58 8.00273 14.0551 7.1782 14.9935 6.8356C15.3031 6.72404 15.6455 6.66355 16.0156 6.66355C18.2209 6.66355 21.3967 8.7514 24.4938 13.7591C17.6248 13.5493 14.1507 11.2542 13.7524 8.98691V8.98642ZM24.4938 14.8399C23.5271 16.4012 22.5541 17.6804 21.6063 18.6988H14.0828C15.1471 16.7647 18.5488 15.0219 24.4938 14.8399ZM14.0992 32.9201C17.4222 32.7689 19.1196 31.1446 20.7799 27.67H21.0078L17.7992 39.0389H17.5713C17.7621 34.9217 16.4788 33.4486 14.0249 33.2974H13.4962L9.91015 45.7615L12.6668 46.5167V46.7056H1.26898V46.5167L3.75813 45.7615L10.9303 20.7584L8.85335 20.0033V19.8144H24.1029L24.9317 17.6239H25.1205V27.0656H24.8946L24.7618 26.5276L24.6687 26.1593C24.3382 24.9733 23.9285 23.9524 23.3929 23.1066C23.2581 22.8919 23.1154 22.6916 22.9668 22.5007C22.6874 22.1467 22.3802 21.8318 22.0403 21.5572C21.6885 21.2726 21.2996 21.0326 20.8735 20.8392C20.5079 20.6736 20.1145 20.5407 19.6904 20.4406C19.0874 20.3008 18.4215 20.2284 17.6858 20.2284H17.2339L16.7707 21.8571L16.4585 22.9499L16.4144 23.1061L13.6107 32.9186H14.0997L14.0992 32.9201ZM30.5923 39.377L27.5745 46.7056H21.7227L22.3445 44.5667L25.6115 33.3351C25.9935 32.0043 25.9677 31.3008 25.7369 30.9631C25.6041 30.7653 25.397 30.6929 25.1597 30.6929C24.8941 30.6929 24.6335 30.7931 24.3724 30.9631C24.1301 31.1218 23.8883 31.3405 23.6416 31.5993H23.6391C23.3245 31.9325 23.001 32.3266 22.668 32.7317H22.3282C23.4226 31.3127 24.7033 29.6721 26.0703 28.5233C26.1793 28.4325 26.2913 28.3438 26.4008 28.258C26.8665 27.8966 27.3391 27.6011 27.8187 27.3958L27.8212 27.3933C28.3033 27.1836 28.7878 27.0671 29.2744 27.0671C29.5652 27.0671 29.8446 27.1117 30.1033 27.2024C31.0957 27.552 31.7799 28.6051 31.6892 30.6067V30.6091C31.6496 31.4575 31.4727 32.4709 31.1209 33.6757L28.7834 41.7589H29.1208L30.1781 39.1911C31.8339 35.1274 33.0958 32.3494 34.1318 30.4926C34.5395 29.7613 34.9121 29.1738 35.2565 28.7057C35.6033 28.2372 35.9273 27.8876 36.2345 27.6338C36.7309 27.2238 37.1867 27.0676 37.6525 27.0676C38.0786 27.0676 38.4724 27.259 38.7771 27.6338C39.1497 28.0879 39.387 28.8128 39.387 29.7866C39.387 30.3156 39.3197 30.8585 39.2191 31.3295C39.17 31.5695 39.1096 31.7862 39.0467 31.9771C38.8911 31.9771 38.737 31.9796 38.5904 31.9815C37.6797 32.0024 36.8999 32.0906 36.2107 32.282C33.7681 32.9484 32.4686 34.8567 30.5923 39.3775V39.377ZM54.86 43.3455C55.5398 43.3455 56.1829 42.5135 57.0112 41.4931H57.3511C55.4952 43.8606 53.2533 46.9317 50.8944 47.1459C50.829 47.1528 50.7636 47.1577 50.6987 47.1577H50.6333C49.6062 47.1577 48.6986 46.6218 48.3022 45.3307C47.9554 44.2007 48.002 42.4927 48.7075 40.0573L49.5948 37.0071L50.8216 32.7684H50.4817L49.3501 35.0357C45.6892 42.5507 43.9526 47.1573 40.9324 47.1573C40.4855 47.1573 40.0336 47.0596 39.6026 46.8682C38.082 46.1924 36.8201 44.3609 36.8201 41.681C36.8201 41.5462 36.8246 41.4108 36.8315 41.2755C37.0133 37.54 39.6794 33.579 42.9117 30.7896C44.5506 29.3731 46.3343 28.259 48.0109 27.6323C48.9889 27.2664 49.9298 27.0661 50.7844 27.0661C51.6391 27.0661 52.5284 27.2828 53.441 27.6323C54.3165 27.9655 55.241 28.4177 56.2933 28.9189L57.4136 27.6323L57.8421 27.1405H58.0309L57.8912 27.6323L57.0108 30.7524L56.3587 33.0708L56.1378 33.8492L54.4076 39.9824C53.6159 42.6642 54.1817 43.345 54.8595 43.345L54.86 43.3455ZM61.2379 47.1577C60.4462 47.1577 59.7243 46.8429 59.2542 46.1091C59.1912 46.009 59.1328 45.9063 59.0817 45.7923C58.6348 44.8438 58.5348 43.3529 59.0282 41.1669C59.0842 40.913 59.1496 40.6493 59.2239 40.3771C59.2522 40.272 59.2824 40.1673 59.3146 40.0578L61.2776 33.3351C61.834 31.3846 61.5218 30.7837 60.9659 30.7019C60.9189 30.6974 60.8728 30.6924 60.8237 30.6924C60.2906 30.6924 59.7759 31.0955 59.2547 31.6642C58.9633 31.981 58.6675 32.3514 58.3718 32.7317H58.0319C58.3321 32.3425 58.6443 31.9394 58.9678 31.5318C60.1881 30.0008 61.5689 28.4395 63.024 27.6333C63.6622 27.2768 64.3137 27.0671 64.9751 27.0671C65.5712 27.0671 66.1181 27.2396 66.5447 27.6333C66.6027 27.6893 66.6612 27.7498 66.7167 27.8153C67.0288 28.1787 67.2542 28.6864 67.3548 29.3647C67.4108 29.7261 67.4296 30.1356 67.4038 30.5972C67.3622 31.4431 67.1829 32.464 66.8242 33.6757L65.0148 39.9839C64.2206 42.6261 64.7869 43.3465 65.5038 43.3465C66.0255 43.3465 66.5259 42.8571 67.1036 42.165C67.2805 41.9577 67.4623 41.7316 67.6555 41.4941H67.9959C67.5837 42.0232 67.1462 42.5869 66.6944 43.1437C65.043 45.1824 63.1643 47.1587 61.2384 47.1587L61.2379 47.1577ZM83.2959 30.392C83.1775 31.3127 82.5835 31.9885 81.8056 32.3911C81.5193 31.7178 81.1908 31.0608 80.8162 30.4644C79.8124 28.854 78.497 27.6705 76.9021 27.6705C75.6937 27.6705 74.9763 28.3512 74.9763 29.4088C74.9763 30.1218 75.3281 30.8699 76.2313 32.0931C76.6222 32.6221 77.1162 33.2374 77.731 33.9782C80.297 37.0378 81.1655 38.5847 81.1655 40.3979C81.1655 42.4788 79.8476 44.4199 77.7959 45.6827C76.967 46.1929 76.0192 46.594 74.9902 46.8479C74.1727 47.0482 73.3086 47.1577 72.4099 47.1577C69.3524 47.1577 67.6922 45.9133 67.6922 44.0981C67.6922 43.9375 67.7061 43.7833 67.7294 43.6365C67.8899 42.6578 68.5627 41.9964 69.3802 41.5392C69.3827 41.5348 69.3871 41.5323 69.3896 41.5298C69.6829 42.1868 70.0069 42.7788 70.3538 43.3033C70.7308 43.8765 71.1361 44.3728 71.5552 44.7853C72.5684 45.7849 73.6673 46.3069 74.6895 46.3258C74.7103 46.3283 74.7291 46.3283 74.7499 46.3283C75.9583 46.3283 76.7129 45.6103 76.7129 44.4407C76.7129 44.3986 76.7129 44.3569 76.7104 44.3173C76.6614 43.1427 75.884 41.8541 73.7303 39.2283C73.5068 38.9531 73.2967 38.6923 73.0991 38.4429C72.722 37.963 72.3886 37.5247 72.0953 37.1221C70.7144 35.2226 70.2205 34.053 70.2205 32.8834C70.2205 30.5878 72.2508 28.5748 75.0571 27.6333C75.1269 27.61 75.1993 27.5842 75.2716 27.5634C76.2917 27.2446 77.4065 27.0671 78.5619 27.0671C79.7173 27.0671 80.788 27.2674 81.5747 27.6333C82.6831 28.1484 83.3163 28.9893 83.3163 30.0499C83.3163 30.1689 83.3093 30.2829 83.295 30.3925L83.2959 30.392ZM99.193 30.3245C99.1905 30.3384 99.1836 30.3548 99.1791 30.3687C98.3829 32.5869 94.2216 34.472 89.1111 36.0288C89.0734 36.0729 89.0412 36.1171 89.006 36.1637C88.9778 36.4993 88.9778 36.8092 88.9778 37.1518C88.9778 41.3062 90.8293 43.1169 93.3952 43.1169C93.6281 43.1169 93.8515 43.103 94.0656 43.0703C95.5604 42.8581 96.6622 41.8937 97.8008 39.9269C97.8543 39.8337 97.9078 39.7404 97.9613 39.6423H98.2616C98.2427 39.6819 98.2239 39.7216 98.2031 39.7588C97.1924 41.7698 96.0563 43.6152 94.6685 44.9598C93.2763 46.3139 91.6255 47.1573 89.5807 47.1573C88.3188 47.1573 87.1897 46.8265 86.2533 46.2182C86.174 46.1646 86.0972 46.1111 86.018 46.0551C84.3552 44.8433 83.3539 42.6994 83.3539 39.9432C83.3539 39.5773 83.3752 39.2089 83.4144 38.8406C83.512 37.8901 83.7359 36.9485 84.0689 36.0303C84.6604 34.3991 85.5919 32.8591 86.7606 31.5284C89.0893 28.8743 92.3607 27.0656 95.7328 27.0656C97.4678 27.0656 98.5435 27.6531 99.0231 28.4752C99.2207 28.8158 99.3189 29.1976 99.3189 29.5962C99.3189 29.8431 99.2772 30.0831 99.193 30.3235V30.3245ZM98.7273 26.666C98.7783 26.6962 98.8298 26.7289 98.8809 26.7636C98.8625 26.7681 98.8462 26.7731 98.8298 26.7775L98.7273 26.6655V26.666ZM101.131 24.3079C100.721 24.7859 100.218 25.184 99.6424 25.48C98.4969 26.0695 97.1696 26.186 95.9473 25.8157C96.357 24.6039 97.2231 23.5924 98.3715 23.0029C99.5195 22.4134 100.846 22.2969 102.067 22.6697C101.862 23.2731 101.542 23.8304 101.131 24.3079Z" fill="black"/>
</g>
<defs>
<clipPath id="clip0_48_187">
<rect width="106.697" height="52.6846" fill="white" transform="translate(0.151306)"/>
</clipPath>
</defs>
</svg>
