<svg width="482" height="238" viewBox="0 0 482 238" fill="none" xmlns="http://www.w3.org/2000/svg">
<g clip-path="url(#clip0_8_72)">
<path d="M59 214H2V208.5L14 204L46 95.5L36 91.5V87H59L64 81.5L70.5 75L75.5 72L81.5 69.5L79 65.5L73.5 59.5C71.5 57.6667 66.8 53.5 64 51.5C60.5 49 59.5 41.5 59 39C58.5 36.5 61.5 31.5 64 29.5C66 27.9 76.5 28.8333 81.5 29.5L94.5 39L105.5 47L100.5 33V15C102.333 12 106.8 5.30001 110 2.50001C113.2 -0.29999 118.667 2.66668 121 4.50001L140 33C144.167 31.3333 153.8 27.9 159 27.5C164.2 27.1 167.5 31 168.5 33L179.5 62.5L193.5 64L206.5 81.5V64H226.5L238.5 83L240 64L291 65.5L312.5 84.5V64H330.5L352 83.5L353 64L393.5 63L404.5 79L411.5 84.5L420 87.5L427.5 96.5L434 104.5C436 104.333 440.2 103.9 441 103.5C441.8 103.1 446 100.333 448 99L461 100L467 106L457 122L454 144.5L445 165.5L451 189C445.833 194.333 435.1 205.5 433.5 207.5C431.9 209.5 423.167 218 419 222L392.5 216L383 207.5H366L352 218.5L297.5 216H201L179 214L170 207.5L164.5 196.5V168.5H152.5L135 216L92.5 214L97.5 196.5L92.5 182L70 177L59 214Z" fill="#F0EFE0"/>
<path d="M184.734 229.211C184.849 229.348 184.956 229.484 185.059 229.621C185.491 230.136 185.943 230.631 186.406 231.115L184.734 229.211ZM441.849 179.082C441.608 179.524 441.366 179.947 441.124 180.368C441.744 180.126 442.344 179.862 442.944 179.609C443.038 179.441 443.123 179.262 443.208 179.082H441.852H441.849ZM320.892 229.242C321.355 229.852 321.87 230.443 322.447 231.001L320.892 229.242Z" fill="#271823"/>
<path d="M193.224 169.42C193.181 169.682 193.139 169.935 193.099 170.188C193.298 169.935 193.499 169.682 193.698 169.42H193.226H193.224ZM193.224 169.42C193.181 169.682 193.139 169.935 193.099 170.188C193.298 169.935 193.499 169.682 193.698 169.42H193.226H193.224ZM193.224 169.42C193.181 169.682 193.139 169.935 193.099 170.188C193.298 169.935 193.499 169.682 193.698 169.42H193.226H193.224ZM193.224 169.42C193.181 169.682 193.139 169.935 193.099 170.188C193.298 169.935 193.499 169.682 193.698 169.42H193.226H193.224ZM193.224 169.42C193.181 169.682 193.139 169.935 193.099 170.188C193.298 169.935 193.499 169.682 193.698 169.42H193.226H193.224ZM193.224 169.42C193.181 169.682 193.139 169.935 193.099 170.188C193.298 169.935 193.499 169.682 193.698 169.42H193.226H193.224ZM193.224 169.42C193.181 169.682 193.139 169.935 193.099 170.188C193.298 169.935 193.499 169.682 193.698 169.42H193.226H193.224ZM193.224 169.42C193.181 169.682 193.139 169.935 193.099 170.188C193.298 169.935 193.499 169.682 193.698 169.42H193.226H193.224ZM193.224 169.42C193.181 169.682 193.139 169.935 193.099 170.188C193.298 169.935 193.499 169.682 193.698 169.42H193.226H193.224ZM193.224 169.42C193.181 169.682 193.139 169.935 193.099 170.188C193.298 169.935 193.499 169.682 193.698 169.42H193.226H193.224ZM193.224 169.42C193.181 169.682 193.139 169.935 193.099 170.188C193.298 169.935 193.499 169.682 193.698 169.42H193.226H193.224ZM193.224 169.42C193.181 169.682 193.139 169.935 193.099 170.188C193.298 169.935 193.499 169.682 193.698 169.42H193.226H193.224ZM193.224 169.42C193.181 169.682 193.139 169.935 193.099 170.188C193.298 169.935 193.499 169.682 193.698 169.42H193.226H193.224ZM193.224 169.42C193.181 169.682 193.139 169.935 193.099 170.188C193.298 169.935 193.499 169.682 193.698 169.42H193.226H193.224ZM193.224 169.42C193.181 169.682 193.139 169.935 193.099 170.188C193.298 169.935 193.499 169.682 193.698 169.42H193.226H193.224Z" fill="#271823"/>
<path d="M232.654 132.336L228.148 141.606L220.55 157.244C208.62 181.817 203.166 192.391 197.709 192.391C194.976 192.391 192.253 189.665 192.253 180.446C192.253 177.089 192.546 173.64 193.101 170.193C193.293 169.933 193.497 169.68 193.698 169.418H193.228C194.397 162.494 196.55 155.578 199.298 149.363V149.354C205.27 136.405 211.993 128.257 221.407 125.681C235.725 121.762 234.471 129.005 232.654 132.336Z" fill="#271823"/>
<path d="M401.437 162.884C401.426 163.052 401.406 163.209 401.394 163.368C401.551 163.157 401.699 162.958 401.869 162.759C401.732 162.801 401.585 162.844 401.437 162.886V162.884Z" fill="#271823"/>
<path d="M427.693 132.681C427.693 136.331 426.751 139.906 424.994 143.255C421.254 150.379 413.796 156.53 403.742 160.391C403.044 160.669 402.33 160.929 401.607 161.173C403.657 142.748 413.199 125.343 422.581 125.343C425.482 125.343 427.693 127.565 427.693 132.678V132.681Z" fill="#271823"/>
<path d="M187.852 91.9501H176.614L181.03 78.704H183.436L187.852 91.9501Z" fill="#271823"/>
<path d="M110.112 66.9655L110.154 66.9025H110.123L110.08 66.9767H110.154L110.166 66.9655H110.112Z" fill="#271823"/>
<path d="M110.166 62.2281C110.166 62.2281 110.166 62.2169 110.154 62.2169H110.08L110.123 62.2888H110.143L110.1 62.2259H110.163L110.166 62.2281Z" fill="#271823"/>
<path d="M445.31 120.46L445.773 120.967C445.847 120.946 445.921 120.924 446.003 120.904C445.773 120.747 445.54 120.599 445.31 120.463V120.46Z" fill="#271823"/>
<path d="M168.472 30.1005L170.124 32.3739C169.672 31.5631 169.114 30.7949 168.472 30.1005Z" fill="#271823"/>
<path d="M110.166 62.2281C110.166 62.2281 110.166 62.2169 110.154 62.2169H110.08L110.123 62.2888H110.143L110.1 62.2259H110.163L110.166 62.2281Z" fill="#271823"/>
<path d="M110.112 66.9655L110.154 66.9025H110.123L110.08 66.9767H110.154L110.166 66.9655H110.112Z" fill="#271823"/>
<path d="M445.31 120.46L445.773 120.967C445.847 120.946 445.921 120.924 446.003 120.904C445.773 120.747 445.54 120.599 445.31 120.463V120.46Z" fill="#271823"/>
<path d="M446.003 120.902C445.921 120.922 445.847 120.944 445.773 120.964L445.31 120.458C445.54 120.595 445.773 120.743 446.003 120.899V120.902Z" fill="#271823"/>
<path d="M481.957 116.355L481.977 116.344L465.453 99.8072L465.41 99.796L463.759 99.1218C456.628 96.2706 448.611 96.6491 441.775 100.166C440.759 100.69 437.894 102.847 436.965 103.489L427.878 92.6287C425.318 89.5669 422.274 86.9351 418.836 84.9081C415.895 83.1745 412.777 81.871 409.857 81.3245V76.3476L397.045 61.7263H349.753V80.8429L333.089 61.7263H309.873V80.6436L293.212 61.7263H235.548V71.821L228.195 61.7263H204.35V72.2533L195.126 61.7263H186.901L185.2 61.7509L170.126 32.3761L168.474 30.1027C167.044 28.5125 165.182 27.2492 162.964 26.4384C157.587 24.4696 150.172 25.1237 141.737 30.1027L126.463 7.5122L126.39 7.40693L125.611 6.24896L125.568 6.19521V6.18401C124.738 5.0462 123.811 4.06741 122.822 3.23645C117.658 -1.07963 110.727 -1.07963 105.561 3.23645C98.7122 8.96359 94.885 22.2276 101.669 42.8807C87.1946 26.6915 73.8148 23.3632 65.4216 26.4384C59.0898 28.7432 55.6184 34.7637 56.7845 41.4069C57.4783 45.3557 59.7837 49.5329 64.0317 53.345L78.0337 67.7648C66.5564 72.0808 60.1709 78.3455 57.7313 84.4714H34.2729V93.9031L37.5877 95.1148L42.5519 96.9156L12.2112 202.685L3.58532 205.306L-0.00247192 206.39V216.043L17.4687 235.959H79.0476V226.212L69.9271 215.801L78.2374 186.906L90.8809 201.328H95.0036L92.6043 209.579L90.7332 216.043L108.204 235.959H144.716L146.009 232.833L159.653 199.735C160.211 198.367 160.768 197.072 161.294 195.843C162.314 201.169 164.438 205.875 167.594 209.696L168.604 210.854L184.719 229.191L184.73 229.211L186.402 231.115C190.632 235.516 196.122 238 201.697 238C210.639 238 217.107 232.031 223.692 221.284L233.032 231.937C235.966 235.852 240.395 238 245.519 238C255.344 238 263.811 230.105 271.405 221.054L280.915 231.97C283.85 235.865 288.29 238.002 293.422 238.002C301.965 238.002 309.716 231.823 316.585 224.306L320.844 229.171L320.887 229.245L322.442 231.003L322.559 231.128C323.358 231.919 324.242 232.645 325.231 233.308C329.849 236.423 336.129 238.002 343.893 238.002C355.473 238.002 366.508 234.36 374.955 227.739C379.836 223.918 383.549 219.289 385.821 214.287L397.33 227.404C403.283 234.246 411.855 238.002 421.459 238.002C443.949 238.002 456.646 218.37 465.187 201.265L468.837 193.959L452.322 175.127C464.607 168.475 470.498 161.431 470.498 153.632C470.498 149.347 468.803 145.474 465.713 142.578L461.482 137.725C461.652 137.693 461.82 137.651 461.988 137.61C464.018 137.127 466.006 136.39 467.91 135.411C474.748 131.894 479.724 125.61 481.563 118.147L481.995 116.368L481.953 116.357L481.957 116.355ZM414.783 87.177C420.179 89.1973 424.617 93.2603 427.122 98.5238C429.615 103.787 429.951 109.797 428.109 115.271C422.693 113.239 418.263 109.187 415.761 103.924C414.32 100.891 413.603 97.6189 413.603 94.3444C413.603 91.9231 413.993 89.5042 414.781 87.177H414.783ZM354.862 66.842H392.835V77.9894H368.757V83.3582H391.931V92.4965H368.757V97.8653H392.835V109.002H354.862V66.8442V66.842ZM314.996 66.842H328.893V97.4106H351.362V108.999H314.998V66.842H314.996ZM275.118 66.842H289.013C289.013 66.842 289.203 84.8409 289.317 97.3681H310.65V108.999H275.116V66.842H275.118ZM257.708 66.842H271.605V108.999H257.708V66.842ZM209.468 66.842H225.413L231.631 76.9793L239.415 89.6318H240.666V66.842H254.205V108.999H238.605L224.256 86.2094H223.005V108.999H209.468V66.842ZM172.494 66.842H191.955L195.677 76.9793L206.028 105.107L207.458 109.002H193.112L191.261 103.433H173.199L171.348 109.002H157.001L158.809 104.085L161.459 96.8731L163.333 91.7574L166.173 84.0637L168.772 76.9793L172.494 66.842ZM168.823 66.842L165.099 76.9793L163.827 80.442L161.818 85.8847L156.706 99.7781L154.823 104.905L153.319 108.999H133.858L131.555 102.735L127.777 92.4607L127.095 90.5972L123.475 80.7645L118.932 68.4188L118.742 67.9036L118.352 66.842H132.71L133.919 70.3159L136.233 76.9793L142.84 95.957H144.344L148.995 82.5787L151.215 76.211L152.782 71.7068L154.476 66.8442H168.825L168.823 66.842ZM156.708 30.1027C158.38 30.1027 159.926 30.376 161.325 30.8799C165.564 32.4276 167.711 36.1546 166.932 40.5961C165.49 48.796 155.15 57.0698 135.174 60.5325H119.427C133.091 39.0686 146.987 30.1005 156.706 30.1005L156.708 30.1027ZM108.598 6.86938C110.324 5.42696 112.26 4.71247 114.183 4.71247C116.105 4.71247 118.055 5.42696 119.78 6.86938C127.744 13.5328 128.901 32.3335 114.194 59.7217C99.4777 32.3313 100.635 13.5328 108.598 6.86938ZM110.165 66.9652C110.165 66.9652 110.165 66.9764 110.154 66.9764H110.08L110.122 66.9025H110.154L110.111 66.9652H110.165ZM110.102 62.228L110.145 62.2907H110.125L110.082 62.2191H110.156L110.167 62.2303H110.105L110.102 62.228ZM61.4422 40.5961C60.6633 36.1524 62.8097 32.4276 67.0488 30.8799C68.4476 30.376 69.9942 30.1027 71.6661 30.1027C81.6283 30.1027 95.975 39.5345 109.966 62.1563C78.9357 61.2089 63.2416 50.8409 61.4422 40.5984V40.5961ZM109.966 67.0391C105.599 74.0922 101.203 79.8708 96.9217 84.4714H62.935C67.7426 75.7339 83.1099 67.8611 109.966 67.0391ZM63.0089 148.715C78.0203 148.032 85.6883 140.695 93.1884 124.998H94.218L79.7236 176.356H78.694C79.5557 157.757 73.7588 151.103 62.6731 150.42H60.285L44.0851 206.726L56.5383 210.137V210.99H5.04909V210.137L16.2937 206.726L48.6935 93.7754L39.3111 90.3643V89.5109H108.2L111.944 79.6155H112.797V122.268H111.776L111.177 119.838L110.756 118.173C109.263 112.816 107.412 108.204 104.993 104.383C104.384 103.413 103.739 102.508 103.068 101.646C101.805 100.047 100.418 98.6246 98.8823 97.3838C97.2932 96.0981 95.5363 95.014 93.6114 94.1405C91.9597 93.3924 90.1826 92.7922 88.2667 92.3397C85.5428 91.7081 82.5347 91.3811 79.211 91.3811H77.1698L75.0771 98.7388L73.6671 103.675L73.4679 104.381L60.802 148.709H63.0111L63.0089 148.715ZM137.515 177.884L123.883 210.99H97.4477L100.257 201.328L115.015 150.59C116.741 144.578 116.624 141.4 115.581 139.875C114.982 138.981 114.046 138.654 112.974 138.654C111.774 138.654 110.597 139.107 109.417 139.875C108.323 140.592 107.231 141.579 106.116 142.748H106.105C104.684 144.254 103.222 146.034 101.718 147.864H100.183C105.127 141.454 110.913 134.042 117.088 128.853C117.58 128.443 118.086 128.042 118.581 127.654C120.684 126.022 122.82 124.687 124.986 123.759L124.997 123.748C127.175 122.801 129.364 122.275 131.562 122.275C132.876 122.275 134.138 122.476 135.306 122.886C139.789 124.465 142.88 129.222 142.471 138.264V138.276C142.292 142.108 141.493 146.686 139.904 152.129L129.344 188.644H130.868L135.644 177.044C143.124 158.687 148.825 146.137 153.505 137.749C155.347 134.446 157.03 131.791 158.586 129.677C160.152 127.56 161.616 125.981 163.004 124.835C165.246 122.982 167.306 122.277 169.409 122.277C171.334 122.277 173.114 123.141 174.49 124.835C176.173 126.886 177.245 130.161 177.245 134.56C177.245 136.95 176.941 139.402 176.487 141.53C176.265 142.614 175.992 143.593 175.708 144.455C175.005 144.455 174.309 144.466 173.646 144.475C169.533 144.569 166.01 144.968 162.896 145.833C151.862 148.843 145.991 157.464 137.515 177.886V177.884ZM247.144 195.811C250.214 195.811 253.119 192.053 256.862 187.443H258.397C250.013 198.138 239.885 212.012 229.229 212.979C228.934 213.011 228.638 213.033 228.345 213.033H228.05C223.41 213.033 219.31 210.612 217.519 204.779C215.952 199.675 216.163 191.959 219.35 180.957L223.358 167.178L228.9 148.03H227.365L222.253 158.272C205.715 192.221 197.87 213.031 184.226 213.031C182.207 213.031 180.166 212.59 178.219 211.725C171.35 208.672 165.649 200.398 165.649 188.292C165.649 187.683 165.669 187.072 165.701 186.46C166.522 169.586 178.566 151.692 193.168 139.091C200.572 132.692 208.629 127.659 216.203 124.828C220.621 123.175 224.871 122.27 228.732 122.27C232.593 122.27 236.611 123.249 240.733 124.828C244.688 126.333 248.865 128.376 253.619 130.64L258.679 124.828L260.615 122.606H261.468L260.837 124.828L256.859 138.923L253.914 149.396L252.916 152.913L245.1 180.619C241.523 192.734 244.079 195.809 247.141 195.809L247.144 195.811ZM275.956 213.033C272.379 213.033 269.118 211.611 266.994 208.296C266.71 207.843 266.446 207.38 266.215 206.865C264.196 202.58 263.744 195.845 265.973 185.97C266.226 184.823 266.522 183.631 266.857 182.402C266.985 181.927 267.121 181.454 267.267 180.959L276.135 150.59C278.648 141.779 277.238 139.064 274.727 138.694C274.514 138.674 274.306 138.652 274.084 138.652C271.676 138.652 269.351 140.473 266.996 143.042C265.68 144.473 264.344 146.146 263.008 147.864H261.472C262.829 146.106 264.239 144.285 265.7 142.444C271.213 135.527 277.451 128.474 284.024 124.832C286.907 123.222 289.85 122.275 292.838 122.275C295.531 122.275 298.002 123.054 299.929 124.832C300.191 125.085 300.455 125.359 300.705 125.654C302.115 127.296 303.134 129.59 303.588 132.654C303.841 134.287 303.926 136.137 303.81 138.222C303.622 142.043 302.811 146.655 301.191 152.129L293.017 180.626C289.429 192.561 291.988 195.816 295.226 195.816C297.583 195.816 299.844 193.605 302.453 190.478C303.252 189.542 304.074 188.521 304.947 187.448H306.484C304.622 189.838 302.646 192.384 300.605 194.9C293.145 204.11 284.658 213.038 275.958 213.038L275.956 213.033ZM375.601 137.295C375.066 141.454 372.383 144.507 368.869 146.325C367.575 143.284 366.091 140.316 364.399 137.622C359.865 130.347 353.922 125 346.718 125C341.259 125 338.018 128.076 338.018 132.853C338.018 136.074 339.607 139.454 343.687 144.979C345.453 147.369 347.685 150.149 350.462 153.495C362.054 167.317 365.977 174.305 365.977 182.496C365.977 191.896 360.024 200.665 350.755 206.37C347.011 208.674 342.729 210.486 338.081 211.633C334.388 212.538 330.484 213.033 326.424 213.033C312.612 213.033 305.112 207.411 305.112 199.211C305.112 198.486 305.175 197.789 305.28 197.126C306.005 192.705 309.045 189.717 312.738 187.652C312.749 187.632 312.769 187.62 312.78 187.609C314.105 190.577 315.569 193.251 317.136 195.621C318.839 198.21 320.67 200.452 322.563 202.316C327.14 206.831 332.105 209.19 336.722 209.275C336.816 209.286 336.901 209.286 336.995 209.286C342.454 209.286 345.863 206.043 345.863 200.759C345.863 200.569 345.863 200.38 345.852 200.201C345.63 194.895 342.118 189.074 332.389 177.212C331.379 175.969 330.431 174.791 329.537 173.664C327.834 171.496 326.328 169.516 325.003 167.697C318.765 159.117 316.534 153.833 316.534 148.549C316.534 138.179 325.706 129.086 338.383 124.832C338.698 124.727 339.025 124.611 339.352 124.517C343.96 123.076 348.996 122.275 354.216 122.275C359.435 122.275 364.272 123.179 367.826 124.832C372.833 127.16 375.693 130.958 375.693 135.749C375.693 136.287 375.662 136.802 375.597 137.297L375.601 137.295ZM447.415 136.99C447.404 137.053 447.373 137.127 447.353 137.189C443.756 147.21 424.958 155.726 401.871 162.759C401.701 162.958 401.555 163.157 401.396 163.368C401.269 164.884 401.269 166.284 401.269 167.832C401.269 186.599 409.633 194.779 421.224 194.779C422.276 194.779 423.286 194.716 424.253 194.568C431.005 193.61 435.983 189.253 441.126 180.368C441.368 179.947 441.61 179.526 441.851 179.082H443.208C443.123 179.261 443.038 179.441 442.944 179.609C438.378 188.693 433.246 197.03 426.976 203.104C420.687 209.221 413.23 213.031 403.993 213.031C398.292 213.031 393.191 211.537 388.961 208.789C388.603 208.547 388.256 208.305 387.898 208.052C380.387 202.578 375.863 192.893 375.863 180.442C375.863 178.789 375.959 177.125 376.136 175.461C376.577 171.167 377.589 166.914 379.093 162.765C381.765 155.397 385.973 148.44 391.253 142.428C401.772 130.439 416.551 122.268 431.784 122.268C439.622 122.268 444.481 124.922 446.648 128.636C447.541 130.174 447.984 131.899 447.984 133.7C447.984 134.815 447.796 135.899 447.415 136.985V136.99ZM445.312 120.463C445.542 120.599 445.775 120.747 446.005 120.904C445.923 120.924 445.849 120.946 445.775 120.966L445.312 120.46V120.463ZM456.169 109.81C454.318 111.969 452.046 113.768 449.445 115.105C444.271 117.768 438.275 118.294 432.753 116.621C434.604 111.147 438.516 106.578 443.705 103.915C448.89 101.252 454.884 100.726 460.397 102.41C459.47 105.136 458.029 107.653 456.169 109.81Z" fill="#271823"/>
</g>
<defs>
<clipPath id="clip0_8_72">
<rect width="482" height="238" fill="white"/>
</clipPath>
</defs>
</svg>
